<svg xmlns="http://www.w3.org/2000/svg" viewBox="0 0 512 512" role="img" aria-label="Escala">
  <circle cx="256" cy="256" r="256" fill="#F4555A" />
  <g fill="#FFFFFF" fill-rule="evenodd">
    <path fill-opacity="0.32" transform="translate(22,168.5) scale(0.5)" d="M234 96L278 96L394 430L320 430L300 346L212 346L192 430L118 430ZM256 158L289 298L223 298Z" />
    <path fill-opacity="0.32" transform="translate(211.3,87) scale(0.62)" d="M234 96L278 96L394 430L320 430L300 346L212 346L192 430L118 430ZM256 158L289 298L223 298Z" />
    <path transform="translate(20.5,21) scale(0.92)" d="M234 96L278 96L394 430L320 430L300 346L212 346L192 430L118 430ZM256 158L289 298L223 298Z" />
  </g>
</svg>
